REM DIRINDEX 1\2,1\3,1\4,1\5
REM DIRNAME cjc005,folder01,folder02,folder03,folder04
TITLE ""
FILE "P1Q_t_1362-1371.mp3" MP3
  TRACK 01 AUDIO
    TITLE "3:cjc005_4993"
    INDEX 01 00:00:00
  TRACK 02 AUDIO
    TITLE "0:"
    INDEX 01 00:01:21
  TRACK 03 AUDIO
    TITLE "4:cjc005_4994"
    INDEX 01 00:01:46
  TRACK 04 AUDIO
    TITLE "0:"
    INDEX 01 00:02:43
  TRACK 05 AUDIO
    TITLE "5:cjc005_4995"
    INDEX 01 00:02:67
  TRACK 06 AUDIO
    TITLE "0:"
    INDEX 01 00:06:57
  TRACK 07 AUDIO
    TITLE "3:cjc005_4996"
    INDEX 01 00:07:41
  TRACK 08 AUDIO
    TITLE "0:"
    INDEX 01 00:08:48
  TRACK 09 AUDIO
    TITLE "4:cjc005_4997"
    INDEX 01 00:09:00
  TRACK 10 AUDIO
    TITLE "0:"
    INDEX 01 00:10:00
  TRACK 11 AUDIO
    TITLE "5:cjc005_4998"
    INDEX 01 00:10:29
  TRACK 12 AUDIO
    TITLE "0:"
    INDEX 01 00:13:20
  TRACK 13 AUDIO
    TITLE "3:cjc005_4999"
    INDEX 01 00:14:00
  TRACK 14 AUDIO
    TITLE "0:"
    INDEX 01 00:15:03
  TRACK 15 AUDIO
    TITLE "4:cjc005_5000"
    INDEX 01 00:15:32
  TRACK 16 AUDIO
    TITLE "0:"
    INDEX 01 00:16:49
  TRACK 17 AUDIO
    TITLE "5:cjc005_5001"
    INDEX 01 00:16:69
  TRACK 18 AUDIO
    TITLE "0:"
    INDEX 01 00:22:11
  TRACK 19 AUDIO
    TITLE "3:cjc005_5002"
    INDEX 01 00:22:60
  TRACK 20 AUDIO
    TITLE "0:"
    INDEX 01 00:23:69
  TRACK 21 AUDIO
    TITLE "4:cjc005_5003"
    INDEX 01 00:24:14
  TRACK 22 AUDIO
    TITLE "0:"
    INDEX 01 00:25:21
  TRACK 23 AUDIO
    TITLE "5:cjc005_5004"
    INDEX 01 00:25:48
  TRACK 24 AUDIO
    TITLE "0:"
    INDEX 01 00:30:08
  TRACK 25 AUDIO
    TITLE "3:cjc005_5005"
    INDEX 01 00:30:59
  TRACK 26 AUDIO
    TITLE "0:"
    INDEX 01 00:31:53
  TRACK 27 AUDIO
    TITLE "4:cjc005_5006"
    INDEX 01 00:32:07
  TRACK 28 AUDIO
    TITLE "0:"
    INDEX 01 00:33:15
  TRACK 29 AUDIO
    TITLE "5:cjc005_5007"
    INDEX 01 00:33:40
  TRACK 30 AUDIO
    TITLE "0:"
    INDEX 01 00:38:00
  TRACK 31 AUDIO
    TITLE "3:cjc005_5008"
    INDEX 01 00:38:49
  TRACK 32 AUDIO
    TITLE "0:"
    INDEX 01 00:39:56
  TRACK 33 AUDIO
    TITLE "4:cjc005_5009"
    INDEX 01 00:40:05
  TRACK 34 AUDIO
    TITLE "0:"
    INDEX 01 00:41:18
  TRACK 35 AUDIO
    TITLE "5:cjc005_5010"
    INDEX 01 00:41:36
  TRACK 36 AUDIO
    TITLE "0:"
    INDEX 01 00:45:63
  TRACK 37 AUDIO
    TITLE "3:cjc005_5011"
    INDEX 01 00:46:47
  TRACK 38 AUDIO
    TITLE "0:"
    INDEX 01 00:47:66
  TRACK 39 AUDIO
    TITLE "4:cjc005_5012"
    INDEX 01 00:48:22
  TRACK 40 AUDIO
    TITLE "0:"
    INDEX 01 00:49:57
  TRACK 41 AUDIO
    TITLE "5:cjc005_5013"
    INDEX 01 00:50:09
  TRACK 42 AUDIO
    TITLE "0:"
    INDEX 01 00:54:62
  TRACK 43 AUDIO
    TITLE "3:cjc005_5014"
    INDEX 01 00:55:40
  TRACK 44 AUDIO
    TITLE "0:"
    INDEX 01 00:56:37
  TRACK 45 AUDIO
    TITLE "4:cjc005_5015"
    INDEX 01 00:56:63
  TRACK 46 AUDIO
    TITLE "0:"
    INDEX 01 00:57:60
  TRACK 47 AUDIO
    TITLE "5:cjc005_5016"
    INDEX 01 00:58:07
  TRACK 48 AUDIO
    TITLE "0:"
    INDEX 01 01:01:40
  TRACK 49 AUDIO
    TITLE "3:cjc005_5017"
    INDEX 01 01:02:16
  TRACK 50 AUDIO
    TITLE "0:"
    INDEX 01 01:03:35
  TRACK 51 AUDIO
    TITLE "4:cjc005_5018"
    INDEX 01 01:03:57
  TRACK 52 AUDIO
    TITLE "0:"
    INDEX 01 01:04:60
  TRACK 53 AUDIO
    TITLE "5:cjc005_5019"
    INDEX 01 01:05:07
  TRACK 54 AUDIO
    TITLE "0:"
    INDEX 01 01:09:12
  TRACK 55 AUDIO
    TITLE "3:cjc005_5020"
    INDEX 01 01:09:56
  TRACK 56 AUDIO
    TITLE "0:"
    INDEX 01 01:10:53
  TRACK 57 AUDIO
    TITLE "4:cjc005_5021"
    INDEX 01 01:10:73
  TRACK 58 AUDIO
    TITLE "0:"
    INDEX 01 01:12:05
  TRACK 59 AUDIO
    TITLE "5:cjc005_5022"
    INDEX 01 01:12:26
  TRACK 60 AUDIO
    TITLE "0:"
    INDEX 01 01:15:27
